<?xml version="1.0" encoding="utf-8"?>
<!-- Generator: Adobe Illustrator 25.4.1, SVG Export Plug-In . SVG Version: 6.00 Build 0)  -->
<svg version="1.1" id="Layer_1" xmlns="http://www.w3.org/2000/svg" xmlns:xlink="http://www.w3.org/1999/xlink" x="0px" y="0px"
	 viewBox="0 0 1133.86 1133.86" style="enable-background:new 0 0 1133.86 1133.86;" xml:space="preserve">
<g>
	<g>
		<g>
			<path d="M641.24,1028.77c-7.1,0-13.61-4.72-15.58-11.91c-16.38-60.09-15.04-114.53-13.96-158.28c0.24-9.59,0.46-18.6,0.46-26.93
				c0-8.92,7.23-16.16,16.16-16.16c8.92,0,16.15,7.24,16.15,16.16c0,8.58-0.23,17.85-0.47,27.73
				c-1.04,41.65-2.31,93.47,12.82,148.97c2.35,8.6-2.72,17.49-11.33,19.84C644.07,1028.59,642.65,1028.77,641.24,1028.77z"/>
			<path d="M511.98,1028.77c-7.11,0-13.62-4.72-15.58-11.91c-16.38-60.09-15.04-114.53-13.95-158.28c0.24-9.59,0.46-18.6,0.46-26.93
				c0-8.92,7.23-16.16,16.15-16.16c8.93,0,16.16,7.24,16.16,16.16c0,8.58-0.23,17.85-0.47,27.73
				c-1.03,41.65-2.31,93.47,12.83,148.97c2.35,8.6-2.73,17.49-11.34,19.84C514.82,1028.59,513.39,1028.77,511.98,1028.77z"/>
			<path d="M647.71,1012.61h-80.79c0,0,26.81-32.32,64.63-32.32C647.71,980.29,647.71,1012.61,647.71,1012.61"/>
			<path d="M647.84,1028.76c-0.04,0-0.08,0.01-0.12,0h-80.79c-6.26,0-11.96-3.61-14.63-9.29c-2.66-5.67-1.81-12.36,2.19-17.19
				c1.29-1.55,32.17-38.15,77.06-38.15c23.05,0,31.73,24.38,32.28,46.2c0.11,0.74,0.16,1.5,0.16,2.27
				C663.99,1021.53,656.76,1028.76,647.84,1028.76z"/>
			<path d="M511.99,1012.61H431.2c0,0,26.81-32.32,64.63-32.32C511.99,980.29,511.99,1012.61,511.99,1012.61"/>
			<path d="M512.12,1028.76c-0.05,0-0.08,0-0.13,0H431.2c-6.26,0-11.96-3.61-14.62-9.29c-2.66-5.67-1.81-12.36,2.19-17.19
				c1.29-1.55,32.17-38.15,77.06-38.15c23.05,0,31.73,24.38,32.29,46.2c0.1,0.74,0.16,1.5,0.16,2.27
				C528.28,1021.53,521.04,1028.76,512.12,1028.76z"/>
			<path d="M566.93,847.81c-153.24,0-277.9-124.67-277.9-277.9c0-153.24,124.66-277.91,277.9-277.91
				c153.23,0,277.9,124.67,277.9,277.91C844.83,723.14,720.16,847.81,566.93,847.81z M566.93,317.86
				c-138.98,0-252.05,113.07-252.05,252.05c0,138.98,113.07,252.05,252.05,252.05c138.98,0,252.05-113.07,252.05-252.05
				C818.98,430.92,705.91,317.86,566.93,317.86z"/>
			<path d="M516.58,457.45c-10.87,0-19.71,8.84-19.71,19.71v21.21c0,10.86,8.84,19.71,19.71,19.71c10.87,0,19.71-8.84,19.71-19.71
				v-21.21C536.29,466.3,527.45,457.45,516.58,457.45z"/>
			<path d="M580.17,457.45c-10.87,0-19.71,8.84-19.71,19.71v21.21c0,10.86,8.83,19.71,19.71,19.71c10.86,0,19.71-8.84,19.71-19.71
				v-21.21C599.88,466.3,591.04,457.45,580.17,457.45z"/>
			<path d="M709.98,635.56c-4.55,0-8.18-0.91-11.26-2.64c-5.06-2.84-8.24-7.9-8.94-14.24c-1.56-14.05,4.55-28.78,10.46-43.01
				c5.05-12.17,10.27-24.75,8.32-32.55c-1.05-4.16-3.08-5.29-13.57-7.53c-9.89-2.12-23.44-5.02-30.74-19.63
				c-14.44-28.86,8.98-44.47,24.48-54.81c0.36-0.24,1.11-0.73,1.34-3.09c1.13-11.33-11.64-33.2-18.71-40.27
				c-3.47-3.47-10.79-6.91-20.07-11.27c-13.26-6.22-31.42-14.75-52.9-30.09c-14.32-10.23-16.34-21.06-15.52-28.34
				c2.62-23.16,37.05-38.63,43.92-41.5c4.93-2.06,10.6,0.28,12.67,5.21c2.06,4.94-0.27,10.61-5.21,12.68
				c-12.37,5.17-31.13,16.96-32.12,25.79c-0.43,3.83,3.85,7.75,7.53,10.37c20.04,14.32,36.58,22.09,49.87,28.33
				c10.99,5.17,19.67,9.23,25.53,15.11c9.75,9.74,26.19,36.75,24.3,55.89c-0.94,9.5-5.88,14.67-9.87,17.32
				c-19.42,12.95-23.84,18.13-17.9,29.99c3,5.99,8.31,7.38,17.46,9.35c10.2,2.18,24.16,5.17,28.31,21.79
				c3.51,14.01-2.97,29.61-9.22,44.68c-4.9,11.82-9.98,24.04-9.12,33.1c4.21,0.74,17.28-1.69,57.84-20.62
				c34.84-16.26,50.06-73.44,48.21-82.75c-2.05-4.69-0.08-10.22,4.55-12.53c4.78-2.39,10.61-0.46,13.01,4.33
				c5.12,10.23-1.45,31.8-4.53,40.6c-5.4,15.49-21.36,53.12-53.03,67.9C741.69,628.71,722.42,635.56,709.98,635.56z"/>
			<path d="M399.99,783.63c-1.01,0-2.05-0.16-3.06-0.5c-4.5-1.5-7.61-5.62-7.74-10.26c-0.27-9.04,8.85-14.42,25.76-21.18
				c2.81-1.13,4.06-2.03,4.55-2.46c-0.33-1.68-2.29-5.31-3.62-7.78c-4.16-7.72-9.86-18.28-6.73-30.8c1.61-6.44,1.03-7.6-12.24-13.4
				c-4.84-2.12-10.33-4.52-15.54-7.98c-10.67-7.12-16.24-18.32-20.71-27.33c-2.27-4.56-5.37-10.81-7.39-11.82
				c-3.22-1.6-7.47-5.03-9.37-12.19c-3.78-14.23,3.94-37.71,13.59-52.19c6.44-9.66,1.54-19.93-10.42-36.69
				c-7.01-9.79-29.84-7.1-39.8-4.25c-5.13,1.47-10.51-1.51-11.98-6.65c-1.47-5.15,1.51-10.52,6.66-11.99
				c4.47-1.28,44.16-11.8,60.9,11.63c9.65,13.52,25.81,36.15,10.78,58.71c-9.12,13.67-12.72,32.1-10.95,36.68
				c7.34,4.03,11.24,11.86,15.35,20.15c3.81,7.66,7.74,15.57,14.11,19.81c3.78,2.53,8.23,4.47,12.54,6.35
				c11.57,5.06,29.07,12.71,23.28,35.86c-1.31,5.23,1.75,10.9,4.98,16.89c3.78,7.01,8.06,14.94,4.92,23.61
				c-2.16,5.96-7.3,10.49-15.71,13.86c-6.58,2.63-10.41,4.55-12.58,5.79c-0.08,0.53-0.21,1.06-0.39,1.57
				C407.8,781.08,404.03,783.63,399.99,783.63z"/>
			<path d="M708.6,797.3c-4.06,0-7.84-2.57-9.2-6.64c-1.44-4.32-1.74-8.6-1.74-11.42c0-6.77,2.68-11.91,5.05-16.44
				c2.74-5.22,5.56-10.62,5.56-20.66c0-25.76,13.75-34,24.73-39.56c10.33-11.97,31.66-27.44,52.88-16.81
				c5.08,2.53,13.3,9.41,11.35,26.89c-0.59,5.32-5.41,9.11-10.7,8.56c-5.33-0.59-9.16-5.39-8.57-10.7c0.57-5.08-0.35-7.2-0.75-7.4
				c-13.65-6.81-30.33,13.1-30.5,13.3c-0.87,1.08-1.99,1.98-3.22,2.6c-9.87,4.93-15.83,7.9-15.83,23.13
				c0,14.8-4.48,23.38-7.76,29.64c-1.87,3.58-2.84,5.54-2.84,7.45c0,1.97,0.27,3.85,0.75,5.3c1.68,5.09-1.06,10.57-6.14,12.26
				C710.65,797.14,709.61,797.3,708.6,797.3z"/>
			<path d="M553.29,622.88c-30.49,0-61.69-5.67-83.29-14.95c-8.2-3.53-11.99-13.03-8.47-21.22c3.53-8.21,13.04-12,21.22-8.47
				c36.19,15.55,97.17,16.71,125.48,2.39c7.97-4.01,17.69-0.81,21.71,7.13c4.03,7.97,0.83,17.69-7.12,21.71
				C604.31,618.83,579.05,622.88,553.29,622.88z"/>
		</g>
		<g>
			<g>
				<g>
					<path d="M950.36,576.95c0,0,20.89,0.38,38-22.3"/>
					<path d="M944.15,590.8c-5.37-2.42-9.07-7.86-8.96-14.13c0.15-8.28,6.92-14.9,15.18-14.89c0.99-0.04,14.23-0.82,25.89-16.27
						c5.05-6.69,14.55-8.02,21.25-2.97c6.69,5.05,8.01,14.57,2.97,21.25c-21.17,28.03-47.46,28.38-50.39,28.32
						C947.98,592.08,945.96,591.61,944.15,590.8z"/>
					<path d="M954.36,557.95c0,0,15.48-11.49,23.96-33.74"/>
					<path d="M948.12,571.79c-2.28-1.03-4.35-2.64-5.95-4.8c-4.97-6.7-3.6-16.15,3.06-21.16c0.41-0.32,12.32-9.74,18.91-27.02
						c2.98-7.83,11.74-11.75,19.57-8.77c7.87,3,11.76,11.75,8.79,19.58c-9.78,25.66-27.16,39.08-29.1,40.52
						C958.82,573.52,952.97,573.97,948.12,571.79z"/>
					<path d="M944.68,562.62c0,0,6.68-18.08,1.59-41.36"/>
					<path d="M938.44,576.45c-7.17-3.22-10.74-11.48-8.03-18.98c0.14-0.42,4.99-14.85,1.03-32.96c-1.79-8.18,3.4-16.27,11.59-18.06
						c8.18-1.79,16.27,3.39,18.06,11.58c5.87,26.83-1.33,47.57-2.17,49.84c-2.9,7.86-11.62,11.88-19.48,8.98
						C939.09,576.73,938.77,576.59,938.44,576.45z"/>
					<path d="M940.11,568.09c0,0-12.78-5.74-19.81-24.28"/>
					<path d="M933.89,581.93c-1.9-0.85-18.78-9.01-27.78-32.72c-2.97-7.84,0.97-16.6,8.8-19.57c7.83-2.97,16.59,0.96,19.56,8.79
						c4.52,11.89,11.9,15.83,12.21,15.99c7.65,3.44,10.88,12.33,7.44,19.98C950.69,582.03,941.54,585.36,933.89,581.93z"/>
					<path d="M965.42,571.45c-4.55,6.27-13.31,7.66-19.58,3.12c-6.27-4.54-7.66-13.3-3.12-19.57c4.54-6.26,13.3-7.66,19.57-3.12
						C968.56,556.42,969.95,565.18,965.42,571.45"/>
					<path d="M942.12,589.86c-1.81-0.82-3.56-1.83-5.17-3c-6.31-4.57-10.47-11.33-11.7-19.03c-1.22-7.69,0.62-15.41,5.2-21.73
						c8.06-11.14,23.03-15.14,35.58-9.5c1.81,0.82,3.56,1.83,5.18,3c13.01,9.43,15.93,27.7,6.5,40.74
						C969.63,591.5,954.66,595.49,942.12,589.86z M954.56,562.18c-0.61-0.27-1.16,0-1.42,0.36c-0.38,0.53-0.26,1.25,0.26,1.62
						c0.79,0.28,1.35,0.1,1.62-0.26c0.31-0.43,0.17-1.29-0.27-1.62L954.56,562.18z"/>
				</g>
				<path d="M842.15,664.08c-11.28,0-18.66-1.22-19.44-1.36c-8.16-1.42-13.63-9.18-12.21-17.35c1.42-8.15,9.16-13.61,17.3-12.22
					c0.6,0.1,40.62,6.37,75.42-15.78c31.45-20.01,32.44-47.28,32.47-48.43l0,0.17h30c0,1.8-0.53,44.4-46.36,73.57
					C891.14,660.61,861.12,664.08,842.15,664.08z"/>
			</g>
			<g>
				<g>
					<path d="M183.49,576.95c0,0-20.89,0.38-38-22.3"/>
					<path d="M189.71,590.8c5.37-2.42,9.07-7.86,8.96-14.13c-0.15-8.28-6.92-14.9-15.18-14.89c-0.99-0.04-14.23-0.82-25.89-16.27
						c-5.05-6.69-14.55-8.02-21.25-2.97c-6.69,5.05-8.01,14.57-2.97,21.25c21.17,28.03,47.46,28.38,50.39,28.32
						C185.88,592.08,187.9,591.61,189.71,590.8z"/>
					<path d="M179.5,557.95c0,0-15.48-11.49-23.96-33.74"/>
					<path d="M185.73,571.79c2.28-1.03,4.35-2.64,5.95-4.8c4.97-6.7,3.6-16.15-3.06-21.16c-0.41-0.32-12.32-9.74-18.91-27.02
						c-2.98-7.83-11.74-11.75-19.57-8.77c-7.87,3-11.76,11.75-8.79,19.58c9.78,25.66,27.16,39.08,29.1,40.52
						C175.04,573.52,180.88,573.97,185.73,571.79z"/>
					<path d="M189.18,562.62c0,0-6.68-18.08-1.59-41.36"/>
					<path d="M195.42,576.45c7.17-3.22,10.74-11.48,8.03-18.98c-0.14-0.42-4.99-14.85-1.03-32.96c1.79-8.18-3.4-16.27-11.59-18.06
						c-8.18-1.79-16.27,3.39-18.06,11.58c-5.87,26.83,1.33,47.57,2.17,49.84c2.9,7.86,11.62,11.88,19.48,8.98
						C194.77,576.73,195.09,576.59,195.42,576.45z"/>
					<path d="M193.75,568.09c0,0,12.78-5.74,19.81-24.28"/>
					<path d="M199.97,581.93c1.9-0.85,18.78-9.01,27.78-32.72c2.97-7.84-0.97-16.6-8.8-19.57c-7.83-2.97-16.59,0.96-19.56,8.79
						c-4.52,11.89-11.9,15.83-12.21,15.99c-7.65,3.44-10.88,12.33-7.44,19.98C183.17,582.03,192.32,585.36,199.97,581.93z"/>
					<path d="M168.44,571.45c4.55,6.27,13.31,7.66,19.58,3.12c6.27-4.54,7.66-13.3,3.12-19.57c-4.54-6.26-13.3-7.66-19.57-3.12
						C165.3,556.42,163.91,565.18,168.44,571.45"/>
					<path d="M156.15,580.34c-9.43-13.04-6.51-31.31,6.5-40.74c1.62-1.18,3.37-2.19,5.18-3c12.54-5.64,27.52-1.64,35.58,9.5
						c4.58,6.31,6.42,14.04,5.2,21.73c-1.23,7.7-5.38,14.46-11.7,19.03c-1.62,1.17-3.36,2.19-5.17,3
						C179.2,595.49,164.23,591.5,156.15,580.34z M179.12,562.28c-0.45,0.33-0.59,1.19-0.27,1.62c0.27,0.37,0.84,0.54,1.62,0.26
						c0.52-0.37,0.64-1.09,0.26-1.62c-0.26-0.36-0.82-0.64-1.42-0.36L179.12,562.28z"/>
				</g>
				<path d="M291.71,664.08c-18.98,0-48.99-3.46-77.17-21.4c-45.84-29.17-46.36-71.77-46.36-73.57h30l0-0.17
					c0.03,1.15,1.02,28.42,32.47,48.43c34.9,22.21,75.03,15.85,75.43,15.78c8.16-1.43,15.9,4.05,17.32,12.22
					c1.42,8.16-4.07,15.93-12.24,17.35C310.38,662.85,302.99,664.08,291.71,664.08z"/>
			</g>
		</g>
	</g>
	<g>
		<g>
			<path d="M274.39,353.62L251,389.1l12.77,16.15l-19.28,29.24l-76.01-102.44l21.15-32.08l124.01,29.63l-19.37,29.38L274.39,353.62z
				 M209.05,335.99l25.34,31.98l14.13-21.43L209.05,335.99z"/>
			<path d="M339.21,162.87l70.42,96.98l-26.96,19.58l-75.26-28.12l39.36,54.2l-26.96,19.58l-70.42-96.98l26.96-19.58l75.76,28.81
				l-39.86-54.88L339.21,162.87z"/>
			<path d="M365.21,148.91l36.16-11.95l34.52,37.29l5.5-50.52l35.67-11.79l-14.37,90.87l11.95,36.16l-31.8,10.51l-11.95-36.16
				L365.21,148.91z"/>
			<path d="M491.87,110.55l96.74-5.46l1.5,26.48l-31.91,1.8l5.26,93.18l-33.27,1.88l-5.26-93.18l-31.57,1.78L491.87,110.55z"/>
			<path d="M674.5,193.21l-39.61-9.05l-10.71,46.9l-32.48-7.42l26.69-116.83l32.48,7.42l-10.03,43.92l39.61,9.05l10.03-43.92
				l32.48,7.42l-26.69,116.84l-32.48-7.42L674.5,193.21z"/>
			<path d="M761.29,149.3l29.73,15.04l-54.09,106.95l-29.73-15.04L761.29,149.3z"/>
			<path d="M912.87,256.88l-78.54,90.53l-25.17-21.84l10.38-79.67l-43.89,50.59l-25.17-21.83l78.54-90.53l25.17,21.84l-10.94,80.31
				l44.45-51.24L912.87,256.88z"/>
			<path d="M962.85,406.78l-18.11-30.96c3.54-6.4,3.19-14.08-1.45-22c-8.5-14.53-23.77-17.41-39.62-8.14
				c-17.75,10.39-21.97,25.07-12.01,42.08c5.84,9.98,14.82,14.57,26.26,13.59l-16.91-28.91l20.69-12.1l31.42,53.7l-27.88,16.31
				c-18.72,2.68-44.8-3.53-60.6-30.53c-18.54-31.69-9.02-65.23,21.94-83.35c30.81-18.03,64.63-10.04,83.18,21.65
				C985.04,364.26,982.01,390.06,962.85,406.78z"/>
		</g>
	</g>
</g>
</svg>
